# xmcd CD database file generated by Grip 3.2.0
# 
# Track frame offsets:
#       150
#       12870
#       25222
#       41173
#       59023
#       74274
#       89653
#       106188
#       121500
#       141639
#       159263
#       173697
#       186506
# 
# Disc length: 2722 seconds
# 
# Revision: 16
# Processed by: cddbd v1.5.1PL0 Copyright (c) Steve Scherf et al.
# Submitted via: Grip 3.2.0
# 
DISCID=b30aa00d
DTITLE=Henri Salvador - Chambre Avec Vue
DYEAR=2000
DGENRE=Chanson
TTITLE0=Jardin d'hiver
TTITLE1=Chambre avec vue
TTITLE2=J'ai vu
TTITLE3=Il fait dimanche
TTITLE4=La muraille de Chine
TTITLE5=Jazz Méditerranée
TTITLE6=Un tour de manège (En duo avec Toots Thielemans)
TTITLE7=Vagabond
TTITLE8=Je sais que tu sais
TTITLE9=Mademoiselle
TTITLE10=Le fou de la reine (En duo avec Françoise Hardy)
TTITLE11=Faire des ronds dans l'eau
TTITLE12=Aime-moi
EXTD=YEAR: 2000
EXTT0=
EXTT1=
EXTT2=
EXTT3=
EXTT4=
EXTT5=
EXTT6=
EXTT7=
EXTT8=
EXTT9=
EXTT10=
EXTT11=
EXTT12=
PLAYORDER=
